<svg width="66" height="49" viewBox="0 0 66 49" fill="none" xmlns="http://www.w3.org/2000/svg">
<g opacity="0.5">
<path d="M1.26 46V37.6H2.244L6.012 43.948H5.484L9.204 37.6H10.188L10.2 46H9.048L9.036 39.412H9.312L6 44.98H5.448L2.112 39.412H2.412V46H1.26ZM15.3849 46.072C14.7049 46.072 14.1049 45.932 13.5849 45.652C13.0729 45.372 12.6729 44.988 12.3849 44.5C12.1049 44.012 11.9649 43.452 11.9649 42.82C11.9649 42.188 12.1009 41.628 12.3729 41.14C12.6529 40.652 13.0329 40.272 13.5129 40C14.0009 39.72 14.5489 39.58 15.1569 39.58C15.7729 39.58 16.3169 39.716 16.7889 39.988C17.2609 40.26 17.6289 40.644 17.8929 41.14C18.1649 41.628 18.3009 42.2 18.3009 42.856C18.3009 42.904 18.2969 42.96 18.2889 43.024C18.2889 43.088 18.2849 43.148 18.2769 43.204H12.8649V42.376H17.6769L17.2089 42.664C17.2169 42.256 17.1329 41.892 16.9569 41.572C16.7809 41.252 16.5369 41.004 16.2249 40.828C15.9209 40.644 15.5649 40.552 15.1569 40.552C14.7569 40.552 14.4009 40.644 14.0889 40.828C13.7769 41.004 13.5329 41.256 13.3569 41.584C13.1809 41.904 13.0929 42.272 13.0929 42.688V42.88C13.0929 43.304 13.1889 43.684 13.3809 44.02C13.5809 44.348 13.8569 44.604 14.2089 44.788C14.5609 44.972 14.9649 45.064 15.4209 45.064C15.7969 45.064 16.1369 45 16.4409 44.872C16.7529 44.744 17.0249 44.552 17.2569 44.296L17.8929 45.04C17.6049 45.376 17.2449 45.632 16.8129 45.808C16.3889 45.984 15.9129 46.072 15.3849 46.072ZM23.6728 46V44.656L23.6128 44.404V42.112C23.6128 41.624 23.4688 41.248 23.1808 40.984C22.9008 40.712 22.4768 40.576 21.9088 40.576C21.5328 40.576 21.1648 40.64 20.8048 40.768C20.4448 40.888 20.1408 41.052 19.8928 41.26L19.4128 40.396C19.7408 40.132 20.1328 39.932 20.5888 39.796C21.0528 39.652 21.5368 39.58 22.0408 39.58C22.9128 39.58 23.5848 39.792 24.0568 40.216C24.5288 40.64 24.7648 41.288 24.7648 42.16V46H23.6728ZM21.5848 46.072C21.1128 46.072 20.6968 45.992 20.3368 45.832C19.9848 45.672 19.7128 45.452 19.5208 45.172C19.3288 44.884 19.2328 44.56 19.2328 44.2C19.2328 43.856 19.3128 43.544 19.4728 43.264C19.6408 42.984 19.9088 42.76 20.2768 42.592C20.6528 42.424 21.1568 42.34 21.7888 42.34H23.8048V43.168H21.8368C21.2608 43.168 20.8728 43.264 20.6728 43.456C20.4728 43.648 20.3728 43.88 20.3728 44.152C20.3728 44.464 20.4968 44.716 20.7448 44.908C20.9928 45.092 21.3368 45.184 21.7768 45.184C22.2088 45.184 22.5848 45.088 22.9048 44.896C23.2328 44.704 23.4688 44.424 23.6128 44.056L23.8408 44.848C23.6888 45.224 23.4208 45.524 23.0368 45.748C22.6528 45.964 22.1688 46.072 21.5848 46.072ZM26.8967 46V37.096H28.0487V46H26.8967ZM33.6389 46V37.6H36.9149C37.6509 37.6 38.2789 37.716 38.7989 37.948C39.3189 38.18 39.7189 38.516 39.9989 38.956C40.2789 39.396 40.4189 39.92 40.4189 40.528C40.4189 41.136 40.2789 41.66 39.9989 42.1C39.7189 42.532 39.3189 42.868 38.7989 43.108C38.2789 43.34 37.6509 43.456 36.9149 43.456H34.2989L34.8389 42.892V46H33.6389ZM34.8389 43.012L34.2989 42.412H36.8789C37.6469 42.412 38.2269 42.248 38.6189 41.92C39.0189 41.592 39.2189 41.128 39.2189 40.528C39.2189 39.928 39.0189 39.464 38.6189 39.136C38.2269 38.808 37.6469 38.644 36.8789 38.644H34.2989L34.8389 38.044V43.012ZM42.1311 46V37.096H43.2831V46H42.1311ZM49.4306 46V44.656L49.3706 44.404V42.112C49.3706 41.624 49.2266 41.248 48.9386 40.984C48.6586 40.712 48.2346 40.576 47.6666 40.576C47.2906 40.576 46.9226 40.64 46.5626 40.768C46.2026 40.888 45.8986 41.052 45.6506 41.26L45.1706 40.396C45.4986 40.132 45.8906 39.932 46.3466 39.796C46.8106 39.652 47.2946 39.58 47.7986 39.58C48.6706 39.58 49.3426 39.792 49.8146 40.216C50.2866 40.64 50.5226 41.288 50.5226 42.16V46H49.4306ZM47.3426 46.072C46.8706 46.072 46.4546 45.992 46.0946 45.832C45.7426 45.672 45.4706 45.452 45.2786 45.172C45.0866 44.884 44.9906 44.56 44.9906 44.2C44.9906 43.856 45.0706 43.544 45.2306 43.264C45.3986 42.984 45.6666 42.76 46.0346 42.592C46.4106 42.424 46.9146 42.34 47.5466 42.34H49.5626V43.168H47.5946C47.0186 43.168 46.6306 43.264 46.4306 43.456C46.2306 43.648 46.1306 43.88 46.1306 44.152C46.1306 44.464 46.2546 44.716 46.5026 44.908C46.7506 45.092 47.0946 45.184 47.5346 45.184C47.9666 45.184 48.3426 45.088 48.6626 44.896C48.9906 44.704 49.2266 44.424 49.3706 44.056L49.5986 44.848C49.4466 45.224 49.1786 45.524 48.7946 45.748C48.4106 45.964 47.9266 46.072 47.3426 46.072ZM56.0505 39.58C56.5705 39.58 57.0265 39.68 57.4185 39.88C57.8185 40.08 58.1305 40.384 58.3545 40.792C58.5785 41.2 58.6905 41.716 58.6905 42.34V46H57.5385V42.472C57.5385 41.856 57.3865 41.392 57.0825 41.08C56.7865 40.768 56.3665 40.612 55.8225 40.612C55.4145 40.612 55.0585 40.692 54.7545 40.852C54.4505 41.012 54.2145 41.248 54.0465 41.56C53.8865 41.872 53.8065 42.26 53.8065 42.724V46H52.6545V39.64H53.7585V41.356L53.5785 40.9C53.7865 40.484 54.1065 40.16 54.5385 39.928C54.9705 39.696 55.4745 39.58 56.0505 39.58ZM62.6465 46.072C62.1185 46.072 61.6145 46 61.1345 45.856C60.6625 45.712 60.2905 45.536 60.0185 45.328L60.4985 44.416C60.7705 44.6 61.1065 44.756 61.5065 44.884C61.9065 45.012 62.3145 45.076 62.7305 45.076C63.2665 45.076 63.6505 45 63.8825 44.848C64.1225 44.696 64.2425 44.484 64.2425 44.212C64.2425 44.012 64.1705 43.856 64.0265 43.744C63.8825 43.632 63.6905 43.548 63.4505 43.492C63.2185 43.436 62.9585 43.388 62.6705 43.348C62.3825 43.3 62.0945 43.244 61.8065 43.18C61.5185 43.108 61.2545 43.012 61.0145 42.892C60.7745 42.764 60.5825 42.592 60.4385 42.376C60.2945 42.152 60.2225 41.856 60.2225 41.488C60.2225 41.104 60.3305 40.768 60.5465 40.48C60.7625 40.192 61.0665 39.972 61.4585 39.82C61.8585 39.66 62.3305 39.58 62.8745 39.58C63.2905 39.58 63.7105 39.632 64.1345 39.736C64.5665 39.832 64.9185 39.972 65.1905 40.156L64.6985 41.068C64.4105 40.876 64.1105 40.744 63.7985 40.672C63.4865 40.6 63.1745 40.564 62.8625 40.564C62.3585 40.564 61.9825 40.648 61.7345 40.816C61.4865 40.976 61.3625 41.184 61.3625 41.44C61.3625 41.656 61.4345 41.824 61.5785 41.944C61.7305 42.056 61.9225 42.144 62.1545 42.208C62.3945 42.272 62.6585 42.328 62.9465 42.376C63.2345 42.416 63.5225 42.472 63.8105 42.544C64.0985 42.608 64.3585 42.7 64.5905 42.82C64.8305 42.94 65.0225 43.108 65.1665 43.324C65.3185 43.54 65.3945 43.828 65.3945 44.188C65.3945 44.572 65.2825 44.904 65.0585 45.184C64.8345 45.464 64.5185 45.684 64.1105 45.844C63.7025 45.996 63.2145 46.072 62.6465 46.072Z" fill="#3A4750"/>
<g clip-path="url(#clip0_321_64)">
<path d="M36.463 11.263C37.1877 11.5077 37.9664 11.5443 38.7108 11.3686C39.4552 11.1929 40.1353 10.8119 40.674 10.269L44.952 5.99101C45.0557 5.87951 45.112 5.73216 45.1092 5.57997C45.1064 5.42778 45.0447 5.28259 44.9371 5.17496C44.8295 5.06732 44.6843 5.00562 44.5321 5.00284C44.3799 5.00005 44.2325 5.0564 44.121 5.16002L40.38 8.90102L38.717 7.23801L42.458 3.49701C42.5617 3.3855 42.618 3.23816 42.6152 3.08597C42.6124 2.93377 42.5507 2.78859 42.4431 2.68095C42.3355 2.57332 42.1903 2.51162 42.0381 2.50883C41.8859 2.50605 41.7385 2.56239 41.627 2.66602L37.886 6.40701L36.223 4.74402L39.964 1.00301C40.0677 0.891501 40.124 0.744158 40.1212 0.591964C40.1184 0.43977 40.0567 0.294586 39.9491 0.18695C39.8415 0.0793146 39.6963 0.0176182 39.5441 0.014831C39.3919 0.0120439 39.2445 0.0683894 39.133 0.172012L34.855 4.45001C34.3126 4.98904 33.932 5.66921 33.7563 6.41347C33.5806 7.15772 33.6169 7.93632 33.861 8.66101L33.885 8.73001L33.099 9.46802L31.52 7.98801L31.543 7.91901C31.7874 7.19417 31.8238 6.41539 31.6481 5.67093C31.4724 4.92647 31.0917 4.24613 30.549 3.70702L28.765 1.92302C27.9933 1.15124 26.9465 0.717651 25.855 0.717651C24.7636 0.717651 23.7168 1.15124 22.945 1.92302C22.1733 2.6948 21.7397 3.74155 21.7397 4.83301C21.7397 5.92447 22.1733 6.97123 22.945 7.74301L24.729 9.52701C25.268 10.0699 25.9483 10.4509 26.6928 10.6266C27.4374 10.8023 28.2163 10.7657 28.941 10.521L29.01 10.498L30.41 11.989L21.722 20.15C21.4915 20.3672 21.3083 20.6298 21.1839 20.9211C21.0595 21.2125 20.9967 21.5264 20.9993 21.8431C21.002 22.1599 21.07 22.4727 21.1992 22.7619C21.3284 23.0512 21.5159 23.3106 21.75 23.524C22.1637 23.8978 22.7025 24.1029 23.26 24.099C23.5932 24.098 23.9227 24.0289 24.2281 23.8958C24.5335 23.7626 24.8085 23.5684 25.036 23.325L33.048 14.796L40.431 22.655C40.6461 22.8836 40.9056 23.0657 41.1937 23.1902C41.4817 23.3147 41.7922 23.379 42.106 23.379H42.124C42.441 23.3759 42.754 23.3075 43.0433 23.1781C43.3327 23.0488 43.5923 22.8611 43.806 22.627C44.208 22.1615 44.4122 21.5573 44.3748 20.9433C44.3374 20.3294 44.0615 19.7544 43.606 19.341L35.728 11.941L36.389 11.241L36.463 11.263ZM24.183 22.522C23.9793 22.7505 23.6956 22.8919 23.3905 22.9171C23.0855 22.9422 22.7824 22.8491 22.544 22.657C22.4295 22.5529 22.3377 22.4263 22.2744 22.285C22.2112 22.1437 22.1778 21.9909 22.1765 21.8361C22.1752 21.6813 22.206 21.5279 22.2668 21.3856C22.3276 21.2432 22.4172 21.115 22.53 21.009L31.218 12.847L32.245 13.94L24.183 22.522ZM42.938 21.837C42.8343 21.9521 42.7078 22.0443 42.5664 22.1077C42.425 22.171 42.272 22.2042 42.117 22.205C41.9626 22.2047 41.8099 22.1731 41.6679 22.1123C41.526 22.0514 41.3978 21.9626 41.291 21.851L29.61 9.41901C29.5331 9.33709 29.4342 9.27895 29.3252 9.25148C29.2162 9.22401 29.1016 9.22836 28.995 9.26401L28.569 9.406C28.0513 9.58068 27.495 9.60666 26.9633 9.48097C26.4316 9.35529 25.9457 9.08298 25.561 8.69501L23.777 6.91101C23.2258 6.35976 22.9161 5.61211 22.9161 4.83252C22.9161 4.05293 23.2258 3.30526 23.777 2.75401C24.3283 2.20276 25.0759 1.89307 25.8555 1.89307C26.6351 1.89307 27.3828 2.20276 27.934 2.75401L29.718 4.53801C30.1058 4.92305 30.3779 5.40909 30.5034 5.94096C30.6289 6.47283 30.6028 7.02923 30.428 7.54701L30.286 7.97301C30.2506 8.07955 30.2464 8.19403 30.2741 8.30286C30.3017 8.41168 30.36 8.5103 30.442 8.587L34.498 12.397L42.798 20.197C43.0263 20.4007 43.1675 20.6843 43.1925 20.9892C43.2174 21.2941 43.1242 21.5969 42.932 21.835L42.938 21.837ZM35.794 10.16L34.876 11.138L33.956 10.274L34.962 9.32901C35.0438 9.25216 35.102 9.15355 35.1296 9.04477C35.1572 8.93599 35.1532 8.82158 35.118 8.71501L34.976 8.28801C34.8243 7.8375 34.7847 7.3568 34.8607 6.88754C34.9367 6.41829 35.1259 5.97464 35.412 5.59502L39.528 9.71101C39.1489 9.99767 38.7054 10.1873 38.2363 10.2635C37.7671 10.3397 37.2864 10.3 36.836 10.148L36.41 10.006C36.3034 9.97024 36.1888 9.96582 36.0798 9.9933C35.9708 10.0208 35.8719 10.079 35.795 10.161L35.794 10.16Z" fill="#3A4750"/>
</g>
</g>
<defs>
<clipPath id="clip0_321_64">
<rect width="24.123" height="24.101" fill="white" transform="translate(21)"/>
</clipPath>
</defs>
</svg>
