<svg width="24" height="24" viewBox="0 0 24 24" fill="none" xmlns="http://www.w3.org/2000/svg">
<path d="M11.6595 19C12.3943 19 12.99 18.4043 12.99 17.6695V12.9306C12.99 12.4167 13.4067 12 13.9206 12C14.3996 12 14.8004 11.6364 14.8468 11.1596L14.8979 10.6359C14.9526 10.0738 14.5109 9.587 13.9462 9.587C13.4181 9.587 12.99 9.15891 12.99 8.63082V8.38C12.99 7.751 13.045 7.414 13.875 7.414C14.488 7.414 14.985 6.91704 14.985 6.304V6.207C14.985 5.54039 14.4446 5 13.778 5H13.212C11.08 5 10.329 6.17 10.329 8.138V8.9225C10.329 9.28949 10.0315 9.587 9.6645 9.587C9.29751 9.587 9 9.88451 9 10.2515V11.3355C9 11.7025 9.29751 12 9.6645 12C10.0315 12 10.329 12.2975 10.329 12.6645V17.6695C10.329 18.4043 10.9247 19 11.6595 19Z" fill="white"/>
</svg>
