<svg width="24" height="24" viewBox="0 0 24 24" fill="none" xmlns="http://www.w3.org/2000/svg">
<path d="M0 12C0 9.62663 0.703788 7.30655 2.02236 5.33316C3.34094 3.35977 5.21509 1.8217 7.4078 0.913451C9.60051 0.00519943 12.0133 -0.232441 14.3411 0.230582C16.6689 0.693605 18.8071 1.83649 20.4853 3.51472C22.1635 5.19295 23.3064 7.33115 23.7694 9.65892C24.2324 11.9867 23.9948 14.3995 23.0866 16.5922C22.1783 18.7849 20.6402 20.6591 18.6668 21.9776C16.6935 23.2962 14.3734 24 12 24C8.8174 24 5.76515 22.7357 3.51472 20.4853C1.26428 18.2348 0 15.1826 0 12H0Z" fill="#F5F5F5"/>
<path d="M11.934 7.68102C12.9275 7.6655 13.8883 8.03537 14.615 8.71302L16.571 6.80002C15.3157 5.62377 13.6541 4.97875 11.934 5.00002C10.6487 4.99969 9.38872 5.3569 8.29485 6.03169C7.20098 6.70648 6.31639 7.67226 5.73999 8.82102L7.98199 10.562C8.25623 9.72855 8.78515 9.00217 9.49418 8.48529C10.2032 7.96841 11.0566 7.6871 11.934 7.68102Z" fill="#EA4335"/>
<path d="M18.589 12.0869C18.5974 11.6104 18.5483 11.1347 18.443 10.6699H11.933V13.2429H15.754C15.6811 13.6943 15.5176 14.1262 15.2734 14.5127C15.0292 14.8992 14.7093 15.2323 14.333 15.4919L16.524 17.1869C17.2056 16.5284 17.7415 15.7343 18.0972 14.8558C18.4529 13.9774 18.6204 13.0341 18.589 12.0869Z" fill="#4285F4"/>
<path d="M7.98897 13.305C7.83755 12.8637 7.75952 12.4006 7.75797 11.934C7.76066 11.4682 7.83589 11.0057 7.98097 10.563L5.73997 8.82104C5.25367 9.78652 5.00037 10.8525 5.00037 11.9335C5.00037 13.0146 5.25367 14.0806 5.73997 15.046L7.98897 13.305Z" fill="#FBBC05"/>
<path d="M11.9329 18.8669C13.6216 18.9147 15.2645 18.3139 16.5239 17.1879L14.3369 15.4929C13.6285 15.968 12.7896 16.2102 11.9369 16.1859C11.0596 16.1816 10.2059 15.9009 9.49719 15.3837C8.78846 14.8665 8.26072 14.1391 7.98895 13.3049L5.74695 15.0459C6.32164 16.1944 7.20473 17.1601 8.2973 17.835C9.38987 18.5098 10.6488 18.8671 11.9329 18.8669Z" fill="#34A853"/>
</svg>
