<svg width="38" height="48" viewBox="0 0 38 48" fill="none" xmlns="http://www.w3.org/2000/svg">
<path d="M7.284 36.6H8.484V45H7.284V36.6ZM2.46 45H1.26V36.6H2.46V45ZM7.392 41.256H2.34V40.212H7.392V41.256ZM13.5543 45.072C12.9143 45.072 12.3463 44.932 11.8503 44.652C11.3543 44.372 10.9623 43.988 10.6743 43.5C10.3863 43.004 10.2423 42.444 10.2423 41.82C10.2423 41.188 10.3863 40.628 10.6743 40.14C10.9623 39.652 11.3543 39.272 11.8503 39C12.3463 38.72 12.9143 38.58 13.5543 38.58C14.1863 38.58 14.7503 38.72 15.2463 39C15.7503 39.272 16.1423 39.652 16.4223 40.14C16.7103 40.62 16.8543 41.18 16.8543 41.82C16.8543 42.452 16.7103 43.012 16.4223 43.5C16.1423 43.988 15.7503 44.372 15.2463 44.652C14.7503 44.932 14.1863 45.072 13.5543 45.072ZM13.5543 44.064C13.9623 44.064 14.3263 43.972 14.6463 43.788C14.9743 43.604 15.2303 43.344 15.4143 43.008C15.5983 42.664 15.6903 42.268 15.6903 41.82C15.6903 41.364 15.5983 40.972 15.4143 40.644C15.2303 40.308 14.9743 40.048 14.6463 39.864C14.3263 39.68 13.9623 39.588 13.5543 39.588C13.1463 39.588 12.7823 39.68 12.4623 39.864C12.1423 40.048 11.8863 40.308 11.6943 40.644C11.5023 40.972 11.4063 41.364 11.4063 41.82C11.4063 42.268 11.5023 42.664 11.6943 43.008C11.8863 43.344 12.1423 43.604 12.4623 43.788C12.7823 43.972 13.1463 44.064 13.5543 44.064ZM26.4035 38.58C26.9155 38.58 27.3675 38.68 27.7595 38.88C28.1515 39.08 28.4555 39.384 28.6715 39.792C28.8955 40.2 29.0075 40.716 29.0075 41.34V45H27.8555V41.472C27.8555 40.856 27.7115 40.392 27.4235 40.08C27.1355 39.768 26.7315 39.612 26.2115 39.612C25.8275 39.612 25.4915 39.692 25.2035 39.852C24.9155 40.012 24.6915 40.248 24.5315 40.56C24.3795 40.872 24.3035 41.26 24.3035 41.724V45H23.1515V41.472C23.1515 40.856 23.0075 40.392 22.7195 40.08C22.4395 39.768 22.0355 39.612 21.5075 39.612C21.1315 39.612 20.7995 39.692 20.5115 39.852C20.2235 40.012 19.9995 40.248 19.8395 40.56C19.6795 40.872 19.5995 41.26 19.5995 41.724V45H18.4475V38.64H19.5515V40.332L19.3715 39.9C19.5715 39.484 19.8795 39.16 20.2955 38.928C20.7115 38.696 21.1955 38.58 21.7475 38.58C22.3555 38.58 22.8795 38.732 23.3195 39.036C23.7595 39.332 24.0475 39.784 24.1835 40.392L23.7155 40.2C23.9075 39.712 24.2435 39.32 24.7235 39.024C25.2035 38.728 25.7635 38.58 26.4035 38.58ZM33.9592 45.072C33.2792 45.072 32.6792 44.932 32.1592 44.652C31.6472 44.372 31.2472 43.988 30.9592 43.5C30.6792 43.012 30.5392 42.452 30.5392 41.82C30.5392 41.188 30.6752 40.628 30.9472 40.14C31.2272 39.652 31.6072 39.272 32.0872 39C32.5752 38.72 33.1232 38.58 33.7312 38.58C34.3472 38.58 34.8912 38.716 35.3632 38.988C35.8352 39.26 36.2032 39.644 36.4672 40.14C36.7392 40.628 36.8752 41.2 36.8752 41.856C36.8752 41.904 36.8712 41.96 36.8632 42.024C36.8632 42.088 36.8592 42.148 36.8512 42.204H31.4392V41.376H36.2512L35.7832 41.664C35.7912 41.256 35.7072 40.892 35.5312 40.572C35.3552 40.252 35.1112 40.004 34.7992 39.828C34.4952 39.644 34.1392 39.552 33.7312 39.552C33.3312 39.552 32.9752 39.644 32.6632 39.828C32.3512 40.004 32.1072 40.256 31.9312 40.584C31.7552 40.904 31.6672 41.272 31.6672 41.688V41.88C31.6672 42.304 31.7632 42.684 31.9552 43.02C32.1552 43.348 32.4312 43.604 32.7832 43.788C33.1352 43.972 33.5392 44.064 33.9952 44.064C34.3712 44.064 34.7112 44 35.0152 43.872C35.3272 43.744 35.5992 43.552 35.8312 43.296L36.4672 44.04C36.1792 44.376 35.8192 44.632 35.3872 44.808C34.9632 44.984 34.4872 45.072 33.9592 45.072Z" fill="black"/>
<path d="M27.5709 10.263V10.679C27.5709 14.142 27.5589 17.604 27.5829 21.066C27.5769 21.3186 27.4787 21.5603 27.3068 21.7456C27.135 21.9309 26.9014 22.047 26.6499 22.072C26.5389 22.079 26.4269 22.078 26.3149 22.078C20.7403 22.078 15.1656 22.078 9.59092 22.078C9.3901 22.0839 9.18918 22.0705 8.99092 22.038C8.40492 21.922 8.30293 21.788 8.30293 21.199C8.30293 17.6857 8.30293 14.1723 8.30293 10.659V10.234C7.94993 10.49 7.65792 10.702 7.36592 10.912C6.90192 11.245 6.54192 11.212 6.22792 10.812C6.14736 10.723 6.0861 10.6183 6.04797 10.5045C6.00984 10.3906 5.99569 10.2701 6.0064 10.1506C6.01711 10.031 6.05244 9.91494 6.11019 9.8097C6.16793 9.70445 6.24683 9.61228 6.34192 9.539C7.35792 8.681 8.37526 7.82467 9.39392 6.97C12.0199 4.762 14.6459 2.55367 17.2719 0.345004C17.3658 0.236202 17.4819 0.148755 17.6124 0.088534C17.7428 0.0283126 17.8847 -0.00328012 18.0284 -0.00413266C18.1721 -0.0049852 18.3143 0.0249211 18.4455 0.0835901C18.5767 0.142259 18.6938 0.228336 18.7889 0.336016C22.4363 3.38002 26.0843 6.42301 29.7329 9.46501C29.8264 9.52451 29.901 9.60949 29.9477 9.70995C29.9945 9.81041 30.0116 9.92217 29.9969 10.032C29.9927 10.103 29.9927 10.1741 29.9969 10.245C29.9899 10.5 30.0689 10.776 29.7549 10.933C29.6036 11.0279 29.4293 11.0796 29.2508 11.0826C29.0723 11.0856 28.8963 11.0397 28.7419 10.95C28.4119 10.75 28.0859 10.544 27.7579 10.342C27.6971 10.3123 27.6347 10.2859 27.5709 10.263ZM10.0109 20.347H25.5589C25.5649 20.238 25.5749 20.147 25.5749 20.06C25.5749 16.2933 25.5749 12.5267 25.5749 8.76001C25.5792 8.67575 25.5621 8.59176 25.5252 8.51587C25.4884 8.43999 25.4329 8.37467 25.3639 8.32601C23.5966 6.86401 21.8326 5.39735 20.0719 3.92601C19.3479 3.32601 18.6223 2.72401 17.8949 2.12001C17.8199 2.17301 17.7599 2.21001 17.7049 2.25501L14.2199 5.112C12.9199 6.18 11.6199 7.256 10.3019 8.306C10.2022 8.37393 10.1219 8.46684 10.0693 8.57546C10.0167 8.68408 9.99342 8.8046 10.0019 8.92501C10.0113 12.5917 10.0133 16.2583 10.0079 19.925L10.0109 20.347Z" fill="black"/>
</svg>
